<svg id="Capa_1" enable-background="new 0 0 512 512" height="512" viewBox="0 0 512 512" width="512" xmlns="http://www.w3.org/2000/svg"><g><path d="m487.509 148.958-27.223 12.607c14.408 31.111 21.714 62.884 21.714 94.435 0 124.617-101.383 226-226 226-45.471 0-89.303-14-127.548-40.596 5.926-15.989 2.489-34.692-10.338-47.519-17.545-17.545-46.095-17.544-63.64 0-17.546 17.545-17.546 46.094 0 63.64 14.757 14.758 37.36 17.137 54.648 6.965 43.801 31.118 94.333 47.51 146.878 47.51 140.959 0 256-115.049 256-256 0-35.937-8.24-71.951-24.491-107.042zm-390.608 287.355c-5.849 5.849-15.363 5.85-21.214 0-5.849-5.849-5.849-15.365 0-21.213 5.847-5.848 15.364-5.85 21.214 0 5.849 5.847 5.849 15.364 0 21.213z"/><path d="m331 196v-45h30v-30h-210v30h30v45c0 24.508 11.818 46.305 30.052 60-18.234 13.695-30.052 35.492-30.052 60v45h-30v30h210v-30h-30v-45c0-24.508-11.818-46.305-30.052-60 18.234-13.695 30.052-35.492 30.052-60zm-30 120v45h-90v-45c0-24.813 20.187-45 45-45s45 20.187 45 45zm0-120c0 24.813-20.187 45-45 45s-45-20.187-45-45v-45h90z"/><path d="m393.886 118.115c17.544 17.544 46.094 17.545 63.64 0s17.546-46.095 0-63.64c-14.791-14.791-37.402-17.113-54.648-6.965-43.801-31.118-94.333-47.51-146.878-47.51-140.959 0-256 115.049-256 256 0 35.937 8.24 71.951 24.491 107.042l27.223-12.607c-14.408-31.111-21.714-62.884-21.714-94.435 0-124.617 101.383-226 226-226 45.471 0 89.303 14 127.548 40.596-5.926 15.989-2.489 34.692 10.338 47.519zm21.213-42.427c5.849-5.848 15.364-5.849 21.214 0 5.849 5.849 5.849 15.365 0 21.213-5.849 5.849-15.365 5.85-21.214 0-5.849-5.848-5.849-15.365 0-21.213z"/></g></svg>